<!-- <svg width="800" height="500" xmlns="http://www.w3.org/2000/svg">
  <defs>
    <marker id="arrow" viewBox="0 0 10 10" refX="8" refY="5" markerWidth="6" markerHeight="6" orient="auto">
      <path d="M 0 0 L 10 5 L 0 10 z" fill="#475569" />
    </marker>
    
    <g id="icon-user">
      <circle cx="15" cy="10" r="5" fill="white"/>
      <path d="M5 25 c0-5 10-5 20 0" stroke="white" stroke-width="2" fill="none"/>
    </g>
    <g id="icon-code">
      <path d="M8 8 L3 15 L8 22 M22 8 L27 15 L22 22" stroke="white" stroke-width="2" fill="none"/>
    </g>
    <g id="icon-server">
      <rect x="5" y="5" width="20" height="20" rx="2" fill="none" stroke="white" stroke-width="2"/>
      <circle cx="20" cy="10" r="1.5" fill="white"/>
    </g>
    <g id="icon-db">
      <ellipse cx="15" cy="6" rx="10" ry="3" stroke="white" stroke-width="2" fill="none"/>
      <path d="M5 6 v12 c0 2 5 3 10 3 s10 -1 10 -3 v-12" stroke="white" stroke-width="2" fill="none"/>
    </g>
    <g id="icon-bucket">
      <path d="M5 8 L8 25 H22 L25 8 Z" fill="none" stroke="white" stroke-width="2"/>
      <ellipse cx="15" cy="8" rx="10" ry="3" stroke="white" stroke-width="2" fill="none"/>
    </g>
  </defs>

  <style>
    .text-title { font-family: sans-serif; font-size: 14px; font-weight: 700; fill: #1e293b; text-anchor: middle; }
    .text-sub { font-family: sans-serif; font-size: 11px; fill: #64748b; text-anchor: middle; }
    
    .box { width: 160px; height: 70px; rx: 8px; stroke-width: 1; }
    .box-code { fill: #EFF6FF; stroke: #3B82F6; }
    .box-infra { fill: #FFF7ED; stroke: #F97316; }
    .box-store { fill: #F0FDF4; stroke: #16A34A; }
    
    .icon-bg { fill-opacity: 1; }
    .icon-bg-blue { fill: #3B82F6; }
    .icon-bg-orange { fill: #F97316; }
    .icon-bg-green { fill: #16A34A; }

    .path-arrow {
      fill: none;
      stroke: #94a3b8;
      stroke-width: 2;
      stroke-dasharray: 8,4;
      marker-end: url(#arrow);
      animation: flow 1s linear infinite;
    }
    @keyframes flow { to { stroke-dashoffset: -12; } }
  </style>

  <rect width="100%" height="100%" fill="#ffffff" />

  <g transform="translate(50, 215)">
    <rect class="box box-code" />
    <circle cx="30" cy="35" r="18" class="icon-bg icon-bg-blue"/>
    <use href="#icon-code" x="15" y="20" />
    <text class="text-title" x="100" y="30">Training Script</text>
    <text class="text-sub" x="100" y="50">Elastic Net Logic</text>
  </g>

  <g transform="translate(320, 215)">
    <rect class="box box-infra" />
    <circle cx="30" cy="35" r="18" class="icon-bg icon-bg-orange"/>
    <use href="#icon-server" x="15" y="20" />
    <text class="text-title" x="100" y="30">MLflow Server</text>
    <text class="text-sub" x="100" y="50">EC2 Gateway</text>
  </g>

  <g transform="translate(600, 100)">
    <rect class="box box-store" />
    <circle cx="30" cy="35" r="18" class="icon-bg icon-bg-green"/>
    <use href="#icon-bucket" x="15" y="20" />
    <text class="text-title" x="100" y="30">Artifact Store</text>
    <text class="text-sub" x="100" y="50">S3 (.pkl models)</text>
  </g>

  <g transform="translate(600, 215)">
    <rect class="box box-store" />
    <circle cx="30" cy="35" r="18" class="icon-bg icon-bg-green"/>
    <use href="#icon-db" x="15" y="20" />
    <text class="text-title" x="100" y="30">Backend Store</text>
    <text class="text-sub" x="100" y="50">Postgres Metrics</text>
  </g>

  <g transform="translate(600, 330)">
    <rect class="box box-infra" />
    <circle cx="30" cy="35" r="18" class="icon-bg icon-bg-orange"/>
    <use href="#icon-server" x="15" y="20" />
    <text class="text-title" x="100" y="30">Model Registry</text>
    <text class="text-sub" x="100" y="50">Version Control</text>
  </g>

  <path class="path-arrow" d="M 210 250 L 312 250" />
  
  <path class="path-arrow" d="M 480 240 C 530 240, 530 135, 592 135" />
  
  <path class="path-arrow" d="M 480 250 L 592 250" />
  
  <path class="path-arrow" d="M 480 260 C 530 260, 530 365, 592 365" />

</svg> -->
<svg width="800" height="600" xmlns="http://www.w3.org/2000/svg">
  <defs>
    <linearGradient id="bg_gradient" x1="0%" y1="0%" x2="0%" y2="100%">
      <stop offset="0%" style="stop-color:#f5f5f5;stop-opacity:1" />
      <stop offset="100%" style="stop-color:#ffffff;stop-opacity:1" />
    </linearGradient>
    <marker id="arrow" viewBox="0 0 10 10" refX="5" refY="5" markerWidth="6" markerHeight="6" orient="auto-start-reverse">
      <path d="M 0 0 L 10 5 L 0 10 z" fill="#FF9900" />
    </marker>
    <filter id="shadow" x="-20%" y="-20%" width="140%" height="140%">
      <feGaussianBlur in="SourceAlpha" stdDeviation="3" />
      <feOffset dx="2" dy="2" result="offsetblur" />
      <feMerge>
        <feMergeNode />
        <feMergeNode in="SourceGraphic" />
      </feMerge>
    </filter>
    
    <!-- Icons -->
    <g id="icon-setup">
      <path fill="#252F3E" d="M19.4,12.6c-0.3-1.4-1.1-2.6-2.2-3.4l1.1-1.9c0.2-0.3,0.1-0.7-0.2-0.9l-2.2-1.3c-0.3-0.2-0.7-0.1-0.9,0.2l-1.1,1.9c-0.8-0.3-1.6-0.4-2.5-0.4s-1.7,0.1-2.5,0.4L7.8,5.2C7.6,5,7.2,4.9,6.9,5.1L4.7,6.4c-0.3,0.2-0.4,0.6-0.2,0.9l1.1,1.9c-1.1,0.8-1.9,2-2.2,3.4H1.2c-0.4,0-0.7,0.3-0.7,0.7v2.5c0,0.4,0.3,0.7,0.7,0.7h2.2c0.3,1.4,1.1,2.6,2.2,3.4l-1.1,1.9c-0.2,0.3-0.1,0.7,0.2,0.9l2.2,1.3c0.3,0.2,0.7,0.1,0.9-0.2l1.1-1.9c0.8,0.3,1.6,0.4,2.5,0.4s1.7-0.1,2.5-0.4l1.1,1.9c0.2,0.3,0.6,0.4,0.9,0.2l2.2-1.3c0.3-0.2,0.4-0.6,0.2-0.9l-1.1-1.9c1.1-0.8,1.9-2,2.2-3.4h2.2c0.4,0,0.7-0.3,0.7-0.7v-2.5c0-0.4-0.3-0.7-0.7-0.7H19.4z M12,16.5c-1.9,0-3.5-1.6-3.5-3.5s1.6-3.5,3.5-3.5s3.5,1.6,3.5,3.5S13.9,16.5,12,16.5z"/>
    </g>
    <g id="icon-aws-config">
        <path fill="#252F3E" d="M18.1,12.5c0-3.2-2.6-5.8-5.8-5.8c-2.1,0-4,1.1-5,2.8c-0.2-0.1-0.4-0.1-0.6-0.1c-1.8,0-3.3,1.5-3.3,3.3c0,0.3,0,0.5,0.1,0.8c-1,0.7-1.6,1.8-1.6,3c0,2.1,1.7,3.8,3.8,3.8h10.5c2.3,0,4.2-1.9,4.2-4.2C22.3,14.4,20.4,12.5,18.1,12.5z M10.8,17.2l-2.8-2.8l1.1-1.1l1.7,1.7l3.9-3.9l1.1,1.1L10.8,17.2z"/>
    </g>
    <g id="icon-s3">
        <path fill="#252F3E" d="M20.6,5.4H3.4C2.6,5.4,2,6,2,6.8v10.5C2,18.1,2.6,18.7,3.4,18.7h17.1c0.8,0,1.4-0.6,1.4-1.4V6.8C22,6,21.4,5.4,20.6,5.4z M8,15.9H5.1v-2.8H8V15.9z M8,12.1H5.1V9.3H8V12.1z M12.5,15.9H9.6v-2.8h2.8V15.9z M12.5,12.1H9.6V9.3h2.8V12.1z M17,15.9h-2.8v-2.8H17V15.9z M17,12.1h-2.8V9.3H17V12.1z"/>
    </g>
    <g id="icon-server">
      <path fill="#252F3E" d="M20,2H4C2.9,2,2,2.9,2,4v16c0,1.1,0.9,2,2,2h16c1.1,0,2-0.9,2-2V4C22,2.9,21.1,2,20,2z M6,6h12v4H6V6z M6,12h12v4H6V12z M9,18H7v-2h2V18z M13,18h-2v-2h2V18z M17,18h-2v-2h2V18z"/>
    </g>
    <g id="icon-database">
      <path fill="#252F3E" d="M12,2C6.5,2,2,3.8,2,6v12c0,2.2,4.5,4,10,4s10-1.8,10-4V6C22,3.8,17.5,2,12,2z M12,8c-4.4,0-8-1.3-8-3s3.6-3,8-3s8,1.3,8,3S16.4,8,12,8z M20,13c0,1.7-3.6,3-8,3s-8-1.3-8-3v-3.5c1.1,0.9,4.3,1.8,8,1.8s6.9-0.9,8-1.8V13z M20,18c0,1.7-3.6,3-8,3s-8-1.3-8-3v-3.5c1.1,0.9,4.3,1.8,8,1.8s6.9-0.9,8-1.8V18z"/>
    </g>
    <g id="icon-code">
      <path fill="#252F3E" d="M9.4,16.6L4.8,12l4.6-4.6L8,6l-6,6l6,6L9.4,16.6z M14.6,16.6l4.6-4.6l-4.6-4.6L16,6l6,6l-6,6L14.6,16.6z"/>
    </g>
    <g id="icon-model">
      <path fill="#252F3E" d="M12,2L2,7v10l10,5l10-5V7L12,2z M11.1,16.3v-5.1l-3.3,1.9v2.5L11.1,16.3z M12.9,16.3l3.3-1.7v-2.5l-3.3-1.9V16.3z M12,3.3l7.2,4.2l-3.3,1.9L12,7.2L8.1,9.3L4.8,7.5L12,3.3z"/>
    </g>
  </defs>
  <style>
    @import url('https://fonts.googleapis.com/css2?family=Roboto:wght@400;700&display=swap');
    .box {
      fill: #fff;
      stroke: #252F3E;
      stroke-width: 1.5;
      filter: url(#shadow);
    }
    .text {
      font-family: 'Roboto', sans-serif;
      font-size: 14px;
      font-weight: 700;
      text-anchor: middle;
      fill: #252F3E;
    }
    .arrow {
      stroke: #FF9900;
      stroke-width: 2;
      marker-end: url(#arrow);
      stroke-dasharray: 10, 5;
      animation: dash 1s linear infinite;
    }

    @keyframes dash {
      from {
        stroke-dashoffset: 0;
      }
      to {
        stroke-dashoffset: -15;
      }
    }
  </style>

  <rect width="100%" height="100%" fill="url(#bg_gradient)" />

  <g transform="translate(50, 50)">
    <rect class="box" width="180" height="80" rx="10" />
    <use href="#icon-setup" x="75" y="15" width="30" height="30"/>
    <text class="text" x="90" y="65">Environment Setup</text>
  </g>

  <g transform="translate(310, 50)">
    <rect class="box" width="180" height="80" rx="10" />
    <use href="#icon-aws-config" x="75" y="15" width="30" height="30"/>
    <text class="text" x="90" y="65">AWS Configuration</text>
  </g>

  <g transform="translate(570, 50)">
    <rect class="box" width="180" height="80" rx="10" />
    <use href="#icon-s3" x="75" y="15" width="30" height="30"/>
    <text class="text" x="90" y="65">S3 Bucket</text>
  </g>

  <g transform="translate(50, 220)">
    <rect class="box" width="180" height="80" rx="10" />
    <use href="#icon-server" x="75" y="15" width="30" height="30"/>
    <text class="text" x="90" y="65">Tracking Server</text>
  </g>

  <g transform="translate(310, 220)">
    <rect class="box" width="180" height="80" rx="10" />
    <use href="#icon-database" x="75" y="15" width="30" height="30"/>
    <text class="text" x="90" y="65">Database Integration</text>
  </g>

  <g transform="translate(570, 220)">
    <rect class="box" width="180" height="80" rx="10" />
    <use href="#icon-code" x="75" y="15" width="30" height="30"/>
    <text class="text" x="90" y="65">Code Integration</text>
  </g>

  <g transform="translate(310, 390)">
    <rect class="box" width="180" height="80" rx="10" />
    <use href="#icon-model" x="75" y="15" width="30" height="30"/>
    <text class="text" x="90" y="65">Model Registry</text>
  </g>
  
  <path class="arrow" d="M 230 90 L 310 90" />
  <path class="arrow" d="M 490 90 L 570 90" />
  <path class="arrow" d="M 140 130 L 140 220" />
  <path class="arrow" d="M 230 260 L 310 260" />
  <path class="arrow" d="M 490 260 L 570 260" />
  <path class="arrow" d="M 400 300 L 400 390" />

</svg>

